<?xml version="1.0" encoding="utf-8"?>
<!-- Generator: Adobe Illustrator 25.0.0, SVG Export Plug-In . SVG Version: 6.00 Build 0)  -->
<svg version="1.0" id="Camada_1" xmlns="http://www.w3.org/2000/svg" xmlns:xlink="http://www.w3.org/1999/xlink" x="0px" y="0px"
	 viewBox="0 0 64 21" style="enable-background:new 0 0 64 21;" xml:space="preserve">
<style type="text/css">
	.st0{fill-rule:evenodd;clip-rule:evenodd;fill:#D0FF59;}
</style>
<path class="st0" d="M12.9925,0c-1.1433,0-2.2522,0.3919-3.1417,1.1103L1.115,8.1662c-1.4867,1.2008-1.4867,3.4669,0,4.6676
	l8.7358,7.0559C10.7403,20.6081,11.8492,21,12.9925,21h47.233c1.6568,0,3-1.3431,3-3V3c0-1.6568-1.3432-3-3-3H12.9925z M5.7256,12
	c0.8284,0,1.5-0.6716,1.5-1.5c0-0.8284-0.6716-1.5-1.5-1.5c-0.8284,0-1.5,0.6716-1.5,1.5C4.2256,11.3284,4.8972,12,5.7256,12z"/>
</svg>
